<?xml version="1.0" standalone="no"?><!DOCTYPE svg PUBLIC "-//W3C//DTD SVG 1.1//EN" "http://www.w3.org/Graphics/SVG/1.1/DTD/svg11.dtd"><svg t="1623396330558" class="icon" viewBox="0 0 1024 1024" version="1.1" xmlns="http://www.w3.org/2000/svg" p-id="12588" xmlns:xlink="http://www.w3.org/1999/xlink" width="200" height="200"><defs><style type="text/css"></style></defs><path d="M502.551273 929.210182l-9.984-4.980364C162.117818 759.272727 36.445091 526.056727 29.067636 362.798545c-4.608-101.445818 34.443636-185.390545 107.147637-230.306909 91.764364-56.762182 221.719273-44.893091 366.917818 33.140364 151.970909-79.616 288-89.530182 383.976727-27.717818 75.613091 48.663273 114.757818 136.541091 107.333818 241.128727-11.473455 162.071273-144.058182 390.493091-481.745454 545.536l-10.146909 4.631273zM269.498182 143.546182c-41.239273 0-77.963636 9.448727-108.823273 28.532363-57.902545 35.793455-88.948364 104.541091-85.131636 188.602182 6.725818 148.433455 122.833455 361.332364 427.845818 516.840728 311.738182-146.338909 434.176-354.606545 444.602182-501.806546 6.167273-87.109818-25.204364-159.511273-86.085818-198.702545C779.636364 124.136727 652.916364 137.076364 514.094545 212.526545l-11.264 6.120728-11.194181-6.260364c-81.92-45.684364-157.602909-68.840727-222.138182-68.840727z" p-id="12589"></path></svg>