<?xml version="1.0" standalone="no"?><!DOCTYPE svg PUBLIC "-//W3C//DTD SVG 1.1//EN" "http://www.w3.org/Graphics/SVG/1.1/DTD/svg11.dtd"><svg t="1623258459115" class="icon" viewBox="0 0 1024 1024" version="1.1" xmlns="http://www.w3.org/2000/svg" p-id="18354" xmlns:xlink="http://www.w3.org/1999/xlink" width="200" height="200"><defs><style type="text/css"></style></defs><path d="M543 389.9H312.3c-13.8 0-25-11.2-25-25s11.2-25 25-25H543c13.8 0 25 11.2 25 25s-11.2 25-25 25zM543 539.8H312.3c-13.8 0-25-11.2-25-25s11.2-25 25-25H543c13.8 0 25 11.2 25 25-0.1 13.8-11.2 25-25 25zM543 689.6H312.3c-13.8 0-25-11.2-25-25s11.2-25 25-25H543c13.8 0 25 11.2 25 25s-11.2 25-25 25zM645.3 712c-4.1 0-8.3-1-12-3.1-8-4.4-12.9-12.8-12.9-21.9V342.1c0-13.8 11.2-25 25-25s25 11.2 25 25v299.6l30.9-19.5c11.6-7.3 27.1-3.9 34.5 7.8 7.4 11.7 3.9 27.1-7.8 34.5l-69.2 43.7c-4.2 2.5-8.9 3.8-13.5 3.8z" fill="#586168" p-id="18355"></path></svg>