<?xml version="1.0" standalone="no"?><!DOCTYPE svg PUBLIC "-//W3C//DTD SVG 1.1//EN" "http://www.w3.org/Graphics/SVG/1.1/DTD/svg11.dtd"><svg t="1623391358007" class="icon" viewBox="0 0 1024 1024" version="1.1" xmlns="http://www.w3.org/2000/svg" p-id="3491" xmlns:xlink="http://www.w3.org/1999/xlink" width="200" height="200"><defs><style type="text/css"></style></defs><path d="M848.853333 140.16a64 64 0 0 0-58.24-9.813333l-382.293333 122.88A64 64 0 0 0 362.666667 314.24v396.586667A141.653333 141.653333 0 0 0 277.333333 682.666667c-70.613333 0-128 47.786667-128 106.666666s57.386667 106.666667 128 106.666667 124.586667-45.226667 128-101.76V463.146667l426.666667-135.893334v238.933334a142.933333 142.933333 0 0 0-85.333333-27.306667c-70.613333 0-128 47.786667-128 106.666667s57.386667 106.666667 128 106.666666 128-48 128-106.666666V192a64 64 0 0 0-25.813334-51.84zM277.333333 853.333333c-47.146667 0-85.333333-28.586667-85.333333-64s38.186667-64 85.333333-64 85.333333 28.8 85.333334 64-38.186667 64-85.333334 64z m128-433.493333v-106.666667a21.333333 21.333333 0 0 1 15.786667-21.333333L803.413333 170.666667a21.333333 21.333333 0 0 1 20.053334 3.413333A21.333333 21.333333 0 0 1 832 192v93.226667z m341.333334 289.706667c-47.146667 0-85.333333-28.8-85.333334-64s38.186667-64 85.333334-64 85.333333 28.586667 85.333333 64-38.186667 64-85.333333 64z" p-id="3492"></path></svg>