<?xml version="1.0" standalone="no"?><!DOCTYPE svg PUBLIC "-//W3C//DTD SVG 1.1//EN" "http://www.w3.org/Graphics/SVG/1.1/DTD/svg11.dtd"><svg t="1623391611037" class="icon" viewBox="0 0 1024 1024" version="1.1" xmlns="http://www.w3.org/2000/svg" p-id="8355" xmlns:xlink="http://www.w3.org/1999/xlink" width="200" height="200"><defs><style type="text/css"></style></defs><path d="M512.449422 1023.999545a511.544662 511.544662 0 1 1 424.618478-227.555455 34.133318 34.133318 0 0 1-45.511091 9.102219 33.678207 33.678207 0 0 1-9.102218-45.511091 443.733136 443.733136 0 1 0-370.005169 195.697691 437.361583 437.361583 0 0 0 182.044364-39.59465 34.133318 34.133318 0 0 1 28.216876 62.350195 511.089551 511.089551 0 0 1-210.26124 45.511091z" fill="#20002A" p-id="8356"></path><path d="M721.345329 783.700985a33.678207 33.678207 0 0 1-24.120878-10.01244l-222.094123-227.555454a34.133318 34.133318 0 0 1 0-48.241757 34.133318 34.133318 0 0 1 48.241756 0l222.094124 227.555455a34.133318 34.133318 0 0 1 0 48.241756 35.04354 35.04354 0 0 1-24.120879 10.01244z" fill="#20002A" p-id="8357"></path><path d="M501.07165 553.414865h-4.095999a34.588429 34.588429 0 0 1-30.03732-37.774205l23.665768-207.530575a34.133318 34.133318 0 0 1 67.811525 7.736886l-23.665767 207.530574a34.133318 34.133318 0 0 1-33.678207 30.03732z" fill="#20002A" p-id="8358"></path></svg>