<?xml version="1.0" standalone="no"?><!DOCTYPE svg PUBLIC "-//W3C//DTD SVG 1.1//EN" "http://www.w3.org/Graphics/SVG/1.1/DTD/svg11.dtd"><svg t="1623223550100" class="icon" viewBox="0 0 1024 1024" version="1.1" xmlns="http://www.w3.org/2000/svg" p-id="17364" xmlns:xlink="http://www.w3.org/1999/xlink" width="200" height="200"><defs><style type="text/css"></style></defs><path d="M102.4 414.48106667V628.736h159.06133333l187.15306667 149.4016V269.1072L267.50293333 414.48106667H102.4z m141.07306667-68.26666667l217.9072-174.8992a34.13333333 34.13333333 0 0 1 55.5008 26.624V849.06666667a34.13333333 34.13333333 0 0 1-55.43253334 26.65813333L237.53386667 697.00266667H68.26666667a34.13333333 34.13333333 0 0 1-34.13333334-34.13333334V380.34773333a34.13333333 34.13333333 0 0 1 34.13333334-34.13333333h175.2064z m437.89653333 387.7888a34.13333333 34.13333333 0 0 1-47.8208-48.70826667 228.352 228.352 0 0 0 68.608-163.5328 228.18133333 228.18133333 0 0 0-59.4944-154.07786666 34.13333333 34.13333333 0 1 1 50.51733333-45.90933334 296.448 296.448 0 0 1 77.24373334 199.9872 296.61866667 296.61866667 0 0 1-89.05386667 212.24106667zM843.63946667 882.00533333a34.13333333 34.13333333 0 1 1-48.9472-47.58186666A446.94186667 446.94186667 0 0 0 921.6 521.76213333c0-115.95093333-44.1344-224.90453333-122.0608-307.6096a34.13333333 34.13333333 0 0 1 49.69813333-46.7968C939.008 262.58773333 989.86666667 388.1984 989.86666667 521.76213333c0 136.36266667-53.07733333 264.43093333-146.2272 360.2432z" fill="#333303" p-id="17365"></path></svg>