<?xml version="1.0" standalone="no"?><!DOCTYPE svg PUBLIC "-//W3C//DTD SVG 1.1//EN" "http://www.w3.org/Graphics/SVG/1.1/DTD/svg11.dtd"><svg t="1623222338071" class="icon" viewBox="0 0 1024 1024" version="1.1" xmlns="http://www.w3.org/2000/svg" p-id="7687" xmlns:xlink="http://www.w3.org/1999/xlink" width="200" height="200"><defs><style type="text/css"></style></defs><path d="M904.2 107.1h-505c-30.8 0-55.8 25-55.8 55.9v27.9c0 30.9 25 55.9 55.8 55.9h505c30.8 0 55.8-25 55.8-55.9V163c0-30.9-25-55.9-55.8-55.9z m-730.2 0h-54.1c-30.8 0-55.9 25-55.9 55.9v27.9c0 30.9 25 55.9 55.9 55.9H174c30.8 0 55.8-25 55.8-55.9V163c0-30.9-25-55.9-55.8-55.9z m0 335.1h-54.1C89 442.2 64 467.2 64 498v28c0 30.9 25 55.8 55.9 55.8H174c30.8 0 55.8-25 55.8-55.8v-28c0-30.8-25-55.8-55.8-55.8z m0 335.1h-54.1c-30.8 0-55.9 25-55.9 55.9v28C64 892 89 917 119.9 917H174c30.8 0 55.8-25 55.8-55.8v-28c0-30.9-25-55.9-55.8-55.9z m730.2-335.1h-505c-30.8 0-55.8 25.1-55.8 55.9V526c0 30.9 25 55.8 55.8 55.8h505c30.8 0 55.8-25 55.8-55.8v-28c0-30.8-25-55.8-55.8-55.8z m0 335.1h-505c-30.8 0-55.8 25-55.8 55.9v28c0 30.8 25 55.8 55.8 55.8h505c30.8 0 55.8-25 55.8-55.8v-28c0-30.9-25-55.9-55.8-55.9z" fill="#040000" p-id="7688"></path></svg>