<svg id="Layer_2" enable-background="new 0 0 32 32" height="512" viewBox="0 0 32 32" width="512" xmlns="http://www.w3.org/2000/svg"><g><path d="m30.93333 29.86667h-29.86666c-.58907 0-1.06667.47708-1.06667 1.06666 0 .58959.4776 1.06667 1.06667 1.06667h29.86666c.58907 0 1.06667-.47708 1.06667-1.06667 0-.58958-.4776-1.06666-1.06667-1.06666z"/><path d="m30.93333 22.4h-29.86666c-.58907 0-1.06667.47708-1.06667 1.06667 0 .58958.4776 1.06667 1.06667 1.06667h29.86666c.58907-.00001 1.06667-.47709 1.06667-1.06667 0-.58959-.4776-1.06667-1.06667-1.06667z"/><path d="m30.93333 14.93333h-29.86666c-.58907 0-1.06667.47709-1.06667 1.06667s.4776 1.06667 1.06667 1.06667h29.86666c.58907 0 1.06667-.47709 1.06667-1.06667s-.4776-1.06667-1.06667-1.06667z"/><path d="m30.93333 7.46667h-19.28593c-.58906 0-1.06667.47708-1.06667 1.06667 0 .58958.4776 1.06667 1.06667 1.06667h19.28594c.58906-.00001 1.06666-.47709 1.06666-1.06668 0-.58958-.4776-1.06666-1.06667-1.06666z"/><path d="m30.93333 0h-19.28593c-.58906 0-1.06667.47708-1.06667 1.06667s.4776 1.06667 1.06667 1.06667h19.28594c.58906-.00001 1.06666-.47709 1.06666-1.06667s-.4776-1.06667-1.06667-1.06667z"/><path d="m.54167 9.46146c.33396.18999.74482.18374 1.07448-.01354 0 0 6.21146-3.73333 6.21146-3.73333.32083-.19272.51718-.54063.51718-.91459s-.19635-.72188-.51719-.91458l-6.21145-3.73334c-.32813-.19687-.73855-.20312-1.07448-.01354-.3349.18854-.54167.54375-.54167.92813v7.46667c0 .38437.20677.73958.54167.92812zm1.59166-6.50938 3.07396 1.84792-3.07396 1.84792z"/></g></svg>