<?xml version="1.0" standalone="no"?><!DOCTYPE svg PUBLIC "-//W3C//DTD SVG 1.1//EN" "http://www.w3.org/Graphics/SVG/1.1/DTD/svg11.dtd"><svg t="1623221560424" class="icon" viewBox="0 0 1024 1024" version="1.1" xmlns="http://www.w3.org/2000/svg" p-id="1444" xmlns:xlink="http://www.w3.org/1999/xlink" width="200" height="200"><defs><style type="text/css"></style></defs><path d="M783.6 65.4c-71.3 0-129.1 57.8-129.1 129.1v208.6c-100.1-83-358.6-300-385.2-319.4-23.3-17-107.5-50.1-143.9 45-6.7 17.7-14.1 347.1-14.1 347.1S119 858.7 123 872.3c26.7 91.6 120.2 68 147.5 47.5 18.6-13.9 281.3-234.5 384.1-319.1v230.4c0 71.3 57.8 129.1 129.1 129.1s129.1-57.8 129.1-129.1V194.6c-0.1-71.3-57.9-129.2-129.2-129.2z" fill="#040000" p-id="1445"></path></svg>