<?xml version="1.0" standalone="no"?><!DOCTYPE svg PUBLIC "-//W3C//DTD SVG 1.1//EN" "http://www.w3.org/Graphics/SVG/1.1/DTD/svg11.dtd"><svg t="1623223524261" class="icon" viewBox="0 0 1024 1024" version="1.1" xmlns="http://www.w3.org/2000/svg" p-id="17092" xmlns:xlink="http://www.w3.org/1999/xlink" width="200" height="200"><defs><style type="text/css"></style></defs><path d="M547.963 120.284c-9.072 0-18.606 3.172-26.314 9.534L294.83 325.786H135.604c-34.475 0-62.154 27.679-62.154 61.702l-0.452 268.551c0 34.023 28.131 62.145 62.606 62.145h161.494L520.746 894.2c8.159 6.805 17.241 9.517 26.313 9.517 21.761 0 41.73-16.782 41.73-41.271l0.904-700.873c0.462-24.508-19.951-41.289-41.73-41.289zM527.09 820.252L335.205 669.188c-10.889-8.612-24.498-13.148-38.107-13.148H134.691l0.913-268.108 159.226-0.442c14.973 0 29.034-5.458 40.375-14.974l192.796-166.482-0.911 614.218z" fill="#151515" p-id="17093"></path><path d="M941.523 608.521c12.498 12.496 12.655 32.6 0.354 44.9-12.302 12.303-32.404 12.145-44.901-0.354L659.389 415.48c-12.497-12.497-12.654-32.6-0.354-44.901 12.301-12.301 32.404-12.143 44.901 0.354l237.587 237.588z" fill="#181818" p-id="17094"></path><path d="M896.977 370.933c12.497-12.498 32.6-12.655 44.901-0.354 12.301 12.301 12.144 32.404-0.354 44.901L703.936 653.067c-12.496 12.498-32.6 12.656-44.9 0.354-12.302-12.301-12.144-32.404 0.354-44.9l237.587-237.588z" fill="#181818" p-id="17095"></path></svg>