<?xml version="1.0" standalone="no"?><!DOCTYPE svg PUBLIC "-//W3C//DTD SVG 1.1//EN" "http://www.w3.org/Graphics/SVG/1.1/DTD/svg11.dtd"><svg t="1623220036355" class="icon" viewBox="0 0 1024 1024" version="1.1" xmlns="http://www.w3.org/2000/svg" p-id="1034" xmlns:xlink="http://www.w3.org/1999/xlink" width="200" height="200"><defs><style type="text/css"></style></defs><path d="M240.4 65.4c71.3 0 129.1 57.8 129.1 129.1v208.6C469.6 320 728.1 103 754.7 83.6c23.3-17 107.5-50.1 143.9 45 6.7 17.7 14.1 347.1 14.1 347.1S905 858.6 901 872.2c-26.7 91.6-120.2 68-147.5 47.5-18.5-13.9-281.2-234.6-384-319.1V831c0 71.3-57.8 129.1-129.1 129.1S111.3 902.3 111.3 831V194.6c0-71.3 57.8-129.2 129.1-129.2z" fill="#040000" p-id="1035"></path></svg>