<?xml version="1.0" standalone="no"?><!DOCTYPE svg PUBLIC "-//W3C//DTD SVG 1.1//EN" "http://www.w3.org/Graphics/SVG/1.1/DTD/svg11.dtd"><svg t="1623633439956" class="icon" viewBox="0 0 1024 1024" version="1.1" xmlns="http://www.w3.org/2000/svg" p-id="1851" xmlns:xlink="http://www.w3.org/1999/xlink" width="200" height="200"><defs><style type="text/css"></style></defs><path d="M415.288889 665.6c-159.288889 0-284.444444-125.155556-284.444445-284.444444s125.155556-284.444444 284.444445-284.444445 284.444444 125.155556 284.444444 284.444445-125.155556 284.444444-284.444444 284.444444z" fill="#FFFFFF" p-id="1852"></path><path d="M415.288889 125.155556c142.222222 0 256 113.777778 256 256s-113.777778 256-256 256-256-113.777778-256-256 113.777778-256 256-256m0-56.888889c-170.666667 0-312.888889 142.222222-312.888889 312.888889s142.222222 312.888889 312.888889 312.888888 312.888889-142.222222 312.888889-312.888888-136.533333-312.888889-312.888889-312.888889z" fill="#9E9B9A" p-id="1853"></path><path d="M614.4 608.711111l284.444444 284.444445" fill="#FFFFFF" p-id="1854"></path><path d="M898.844444 921.6c-5.688889 0-17.066667 0-22.755555-5.688889l-284.444445-284.444444c-11.377778-11.377778-11.377778-28.444444 0-39.822223s28.444444-11.377778 39.822223 0l284.444444 284.444445c11.377778 11.377778 11.377778 28.444444 0 39.822222 0 5.688889-11.377778 5.688889-17.066667 5.688889z" fill="#9E9B9A" p-id="1855"></path></svg>