<?xml version="1.0" standalone="no"?><!DOCTYPE svg PUBLIC "-//W3C//DTD SVG 1.1//EN" "http://www.w3.org/Graphics/SVG/1.1/DTD/svg11.dtd"><svg t="1623428019891" class="icon" viewBox="0 0 1024 1024" version="1.1" xmlns="http://www.w3.org/2000/svg" p-id="27687" xmlns:xlink="http://www.w3.org/1999/xlink" width="200" height="200"><defs><style type="text/css"></style></defs><path d="M722.8 459l-18.9 18.9-2.7 2.7-4.7 4.8-52.7 52.7 26.3 26.3 52.7-52.7 184.4 184.4-210.7 210.8-184.4-184.4 52.6-52.7-26.3-26.4-52.7 52.7-26.3 26.4 237.1 237.1 263.4-263.5z" fill="#060001" p-id="27688"></path><path d="M327.7 353.6l342.5 342.5 26.3-26.3L354 327.3z" fill="#060001" p-id="27689"></path><path d="M301.3 511.7L116.9 327.3l210.8-210.7L512.1 301l-52.7 52.6 26.3 26.4 52.7-52.7 26.3-26.4-237-237L64.2 327.3l237.1 237.1 26.3-26.3 52.8-52.7L354 459z" fill="#060001" p-id="27690"></path></svg>